<mxfile host="app.diagrams.net" agent="Mozilla/5.0 (Windows NT 10.0; Win64; x64) AppleWebKit/537.36 (KHTML, like Gecko) Chrome/128.0.0.0 Safari/537.36" version="24.7.7">
  <diagram name="Page-1" id="_keuwPuYUS_h97MCptYj">
    <mxGraphModel dx="767" dy="794" grid="1" gridSize="10" guides="1" tooltips="1" connect="1" arrows="1" fold="1" page="1" pageScale="1" pageWidth="850" pageHeight="1100" math="0" shadow="0">
      <root>
        <mxCell id="0" />
        <mxCell id="1" parent="0" />
        <mxCell id="EZaISK_Nlon8-PHu1Aqm-3" value="" style="edgeStyle=orthogonalEdgeStyle;rounded=0;orthogonalLoop=1;jettySize=auto;html=1;" edge="1" parent="1" source="EZaISK_Nlon8-PHu1Aqm-1" target="EZaISK_Nlon8-PHu1Aqm-2">
          <mxGeometry relative="1" as="geometry" />
        </mxCell>
        <mxCell id="EZaISK_Nlon8-PHu1Aqm-1" value="" style="strokeWidth=2;html=1;shape=mxgraph.flowchart.start_2;whiteSpace=wrap;" vertex="1" parent="1">
          <mxGeometry x="410" y="30" width="30" height="30" as="geometry" />
        </mxCell>
        <mxCell id="EZaISK_Nlon8-PHu1Aqm-13" value="" style="edgeStyle=orthogonalEdgeStyle;rounded=0;orthogonalLoop=1;jettySize=auto;html=1;" edge="1" parent="1" source="EZaISK_Nlon8-PHu1Aqm-2" target="EZaISK_Nlon8-PHu1Aqm-7">
          <mxGeometry relative="1" as="geometry" />
        </mxCell>
        <mxCell id="EZaISK_Nlon8-PHu1Aqm-2" value="size_t&lt;span style=&quot;white-space: pre;&quot;&gt;&#x9;&lt;/span&gt;count&lt;div&gt;size_t&lt;span style=&quot;white-space: pre;&quot;&gt;&#x9;&lt;/span&gt;size&lt;/div&gt;" style="shape=parallelogram;html=1;strokeWidth=2;perimeter=parallelogramPerimeter;whiteSpace=wrap;rounded=1;arcSize=12;size=0.23;" vertex="1" parent="1">
          <mxGeometry x="363" y="90" width="125" height="80" as="geometry" />
        </mxCell>
        <mxCell id="EZaISK_Nlon8-PHu1Aqm-6" value="&amp;nbsp;void *calloc(size_t nmemb, size_t size);" style="strokeWidth=2;html=1;shape=mxgraph.flowchart.annotation_2;align=left;labelPosition=right;pointerEvents=1;" vertex="1" parent="1">
          <mxGeometry x="500" y="70" width="50" height="100" as="geometry" />
        </mxCell>
        <mxCell id="EZaISK_Nlon8-PHu1Aqm-12" style="edgeStyle=orthogonalEdgeStyle;rounded=0;orthogonalLoop=1;jettySize=auto;html=1;entryX=0.5;entryY=0;entryDx=0;entryDy=0;" edge="1" parent="1" source="EZaISK_Nlon8-PHu1Aqm-7" target="EZaISK_Nlon8-PHu1Aqm-8">
          <mxGeometry relative="1" as="geometry" />
        </mxCell>
        <mxCell id="EZaISK_Nlon8-PHu1Aqm-7" value="void*&lt;span style=&quot;white-space: pre;&quot;&gt;&#x9;&lt;/span&gt;ptr" style="shape=parallelogram;html=1;strokeWidth=2;perimeter=parallelogramPerimeter;whiteSpace=wrap;rounded=1;arcSize=12;size=0.23;" vertex="1" parent="1">
          <mxGeometry x="363" y="200" width="125" height="60" as="geometry" />
        </mxCell>
        <mxCell id="EZaISK_Nlon8-PHu1Aqm-14" value="" style="edgeStyle=orthogonalEdgeStyle;rounded=0;orthogonalLoop=1;jettySize=auto;html=1;" edge="1" parent="1" source="EZaISK_Nlon8-PHu1Aqm-8" target="EZaISK_Nlon8-PHu1Aqm-9">
          <mxGeometry relative="1" as="geometry" />
        </mxCell>
        <mxCell id="EZaISK_Nlon8-PHu1Aqm-8" value="ptr = (void*) malloc(count * size)" style="rounded=1;whiteSpace=wrap;html=1;absoluteArcSize=1;arcSize=14;strokeWidth=2;" vertex="1" parent="1">
          <mxGeometry x="326.75" y="290" width="197.5" height="100" as="geometry" />
        </mxCell>
        <mxCell id="EZaISK_Nlon8-PHu1Aqm-17" value="" style="edgeStyle=orthogonalEdgeStyle;rounded=0;orthogonalLoop=1;jettySize=auto;html=1;" edge="1" parent="1" source="EZaISK_Nlon8-PHu1Aqm-9" target="EZaISK_Nlon8-PHu1Aqm-16">
          <mxGeometry relative="1" as="geometry" />
        </mxCell>
        <mxCell id="EZaISK_Nlon8-PHu1Aqm-19" value="T" style="edgeLabel;html=1;align=center;verticalAlign=middle;resizable=0;points=[];" vertex="1" connectable="0" parent="EZaISK_Nlon8-PHu1Aqm-17">
          <mxGeometry x="-0.159" y="6" relative="1" as="geometry">
            <mxPoint x="1" as="offset" />
          </mxGeometry>
        </mxCell>
        <mxCell id="EZaISK_Nlon8-PHu1Aqm-23" value="" style="edgeStyle=orthogonalEdgeStyle;rounded=0;orthogonalLoop=1;jettySize=auto;html=1;" edge="1" parent="1" source="EZaISK_Nlon8-PHu1Aqm-9" target="EZaISK_Nlon8-PHu1Aqm-20">
          <mxGeometry relative="1" as="geometry" />
        </mxCell>
        <mxCell id="EZaISK_Nlon8-PHu1Aqm-9" value="ptr != NULL" style="strokeWidth=2;html=1;shape=mxgraph.flowchart.decision;whiteSpace=wrap;" vertex="1" parent="1">
          <mxGeometry x="375.5" y="430" width="100" height="100" as="geometry" />
        </mxCell>
        <mxCell id="EZaISK_Nlon8-PHu1Aqm-10" value="" style="strokeWidth=2;html=1;shape=mxgraph.flowchart.start_2;whiteSpace=wrap;" vertex="1" parent="1">
          <mxGeometry x="660" y="465" width="30" height="30" as="geometry" />
        </mxCell>
        <mxCell id="EZaISK_Nlon8-PHu1Aqm-18" value="" style="edgeStyle=orthogonalEdgeStyle;rounded=0;orthogonalLoop=1;jettySize=auto;html=1;" edge="1" parent="1" source="EZaISK_Nlon8-PHu1Aqm-16" target="EZaISK_Nlon8-PHu1Aqm-10">
          <mxGeometry relative="1" as="geometry" />
        </mxCell>
        <mxCell id="EZaISK_Nlon8-PHu1Aqm-16" value="return NULL" style="rounded=1;whiteSpace=wrap;html=1;absoluteArcSize=1;arcSize=14;strokeWidth=2;" vertex="1" parent="1">
          <mxGeometry x="524.25" y="430" width="100" height="100" as="geometry" />
        </mxCell>
        <mxCell id="EZaISK_Nlon8-PHu1Aqm-24" value="" style="edgeStyle=orthogonalEdgeStyle;rounded=0;orthogonalLoop=1;jettySize=auto;html=1;" edge="1" parent="1" source="EZaISK_Nlon8-PHu1Aqm-20" target="EZaISK_Nlon8-PHu1Aqm-21">
          <mxGeometry relative="1" as="geometry" />
        </mxCell>
        <mxCell id="EZaISK_Nlon8-PHu1Aqm-20" value="ft_bzero(ptr, count * size)" style="rounded=1;whiteSpace=wrap;html=1;absoluteArcSize=1;arcSize=14;strokeWidth=2;" vertex="1" parent="1">
          <mxGeometry x="326" y="580" width="197.5" height="100" as="geometry" />
        </mxCell>
        <mxCell id="EZaISK_Nlon8-PHu1Aqm-25" value="" style="edgeStyle=orthogonalEdgeStyle;rounded=0;orthogonalLoop=1;jettySize=auto;html=1;" edge="1" parent="1" source="EZaISK_Nlon8-PHu1Aqm-21" target="EZaISK_Nlon8-PHu1Aqm-22">
          <mxGeometry relative="1" as="geometry" />
        </mxCell>
        <mxCell id="EZaISK_Nlon8-PHu1Aqm-21" value="return NULL" style="rounded=1;whiteSpace=wrap;html=1;absoluteArcSize=1;arcSize=14;strokeWidth=2;" vertex="1" parent="1">
          <mxGeometry x="374.75" y="720" width="100" height="100" as="geometry" />
        </mxCell>
        <mxCell id="EZaISK_Nlon8-PHu1Aqm-22" value="" style="strokeWidth=2;html=1;shape=mxgraph.flowchart.start_2;whiteSpace=wrap;" vertex="1" parent="1">
          <mxGeometry x="409.75" y="850" width="30" height="30" as="geometry" />
        </mxCell>
      </root>
    </mxGraphModel>
  </diagram>
</mxfile>
